Coordinates
version=1
nRows=8
nColumns=33
inDegrees=yes

Units are S.I. units (second, meters, Newtons, ...)
Angles are in degrees.

endheader
time	ground_thorax_rot_x	ground_thorax_rot_y	ground_thorax_rot_z	ground_thorax_tx	ground_thorax_ty	ground_thorax_tz	clav_prot_r	clav_elev_r	scapula_abduction_r	scapula_elevation_r	scapula_upward_rot_r	scapula_winging_r	shoulder_elv_r	plane_of_elev_r	axial_rot_r	elbow_flexion_r	pro_sup_r	wrist_flex_r	wrist_dev_r	clav_prot_l	clav_elev_l	scapula_abduction_l	scapula_elevation_l	scapula_upward_rot_l	scapula_winging_l	shoulder_elv_l	plane_of_elev_l	axial_rot_l	elbow_flexion_l	pro_sup_l	wrist_flex_l	wrist_dev_l
      7.96000000	    -24.27332739	    -27.96938933	     44.92260505	     87.54169033	    771.67264399	    -41.51149780	     29.07250528	    -45.00000000	     40.96343060	    -45.00000000	    -45.00000000	    627.27698362	  -4970.00427964	     20.61271267	    179.99999979	   1446.95868561	   -162.94152643	     11.69297851	     12.69428390	      2.40803542	     26.76258644	    -30.51677498	    -42.15253384	    -45.00000000	  -3521.78453423	    630.38603952	    132.28399382	    -93.57181082	    709.35780176	    405.61416127	     12.42545851	    -14.20577571
      7.97000000	    -24.36442111	    -27.70052729	     44.68154601	     87.61142975	    771.42922039	    -41.59944423	     29.39492641	    -45.00000000	     40.94391621	    -45.00000000	    -45.00000000	    627.21897921	  -4969.92332997	     20.66993643	    179.99999979	   1446.98375166	   -163.56622185	     11.80597458	     12.80365828	      2.20280984	     26.18363528	    -30.65152858	    -41.86989619	    -45.00000000	  -3521.81218401	    630.40779140	    132.43952670	    -93.78777500	    709.43735918	    405.78245645	     12.44157123	    -14.23913542
      7.98000000	    -24.41623291	    -27.74549633	     44.70415800	     87.56283831	    771.20995583	    -41.68684861	     29.08894856	    -45.00000000	     41.00479768	    -45.00000000	    -45.00000000	    627.32284988	  -4970.01223848	     20.53254602	    179.99999979	   1447.08904072	   -164.03115831	     11.60293071	     12.55637804	      2.49848519	     26.65050150	    -30.52174523	    -42.01823279	    -45.00000000	  -3521.62868792	    630.39827420	    132.22548237	    -93.93359634	    709.37108973	    405.92773097	     12.26981453	    -14.17558809
      7.99000000	    -24.59952252	    -27.47846082	     44.45427723	     87.40067879	    771.00595363	    -41.77084769	     29.35001330	    -45.00000000	     40.86252116	    -45.00000000	    -45.00000000	    627.24259521	  -4969.94148947	     20.65152677	    179.99999979	   1447.15079470	   -164.42908049	     11.85253674	     12.80016946	      2.22957298	     26.22070189	    -30.71354091	    -41.98594756	    -45.00000000	  -3521.86792947	    630.25665462	    132.52203911	    -94.14647386	    709.51484920	    406.04117035	     12.37466272	    -14.28970108
      8.00000000	    -24.60574081	    -27.48314140	     44.52501063	     87.12806877	    770.81138787	    -41.85214253	     29.09840745	    -45.00000000	     40.97890785	    -45.00000000	    -45.00000000	    627.27201694	  -4969.97474467	     20.48149491	    179.99999979	   1447.16121605	   -164.71185798	     11.63508772	     12.38069695	      2.54631233	     26.58489278	    -30.55600018	    -41.99150986	    -45.00000000	  -3521.52524563	    630.38544388	    132.17456049	    -94.36382274	    709.40145606	    406.23732118	     12.11529060	    -14.17075853
      8.01000000	    -24.79571556	    -27.32045056	     44.29677532	     86.74496063	    770.62571802	    -41.92802176	     29.27679758	    -45.00000000	     40.87241720	    -45.00000000	    -45.00000000	    627.24994724	  -4969.93835218	     20.62950465	    179.99999979	   1447.25664902	   -164.95114383	     11.91236150	     12.62437311	      2.31750861	     26.25964082	    -30.71231207	    -42.06408774	    -45.00000000	  -3521.77317160	    630.19919485	    132.53399298	    -94.67086771	    709.54156891	    406.44291412	     12.28261284	    -14.34945584
      8.02000000	    -24.84040218	    -27.23600892	     44.31456147	     86.24095492	    770.45226700	    -41.98812350	     29.12269194	    -45.00000000	     40.89958009	    -45.00000000	    -45.00000000	    627.19392107	  -4969.92402997	     20.57880064	    179.99999979	   1447.25839990	   -165.06917066	     11.81206314	     12.21072124	      2.46968962	     26.57375428	    -30.64294550	    -42.02845988	    -45.00000000	  -3521.46739418	    630.30777940	    132.23699987	    -94.96658325	    709.44657659	    406.72904257	     11.96774158	    -14.26515723
      8.03000000	    -25.01206682	    -26.98088078	     44.05322239	     85.63278396	    770.29022453	    -42.03839087	     29.25001061	    -45.00000000	     40.84480290	    -45.00000000	    -45.00000000	    627.13718487	  -4969.76402162	     20.71148880	    179.99999979	   1447.33509743	   -165.11843925	     12.16998200	     12.48301019	      2.26143165	     26.28375241	    -30.79461115	    -42.00967442	    -45.00000000	  -3521.77787398	    630.18624105	    132.65917896	    -95.34897679	    709.64269097	    407.00100250	     12.19704845	    -14.49508190
